<svg xmlns:dc="http://purl.org/dc/elements/1.1/" xmlns:cc="http://creativecommons.org/ns#" xmlns:rdf="http://www.w3.org/1999/02/22-rdf-syntax-ns#" xmlns:svg="http://www.w3.org/2000/svg" xmlns="http://www.w3.org/2000/svg" xmlns:sodipodi="http://sodipodi.sourceforge.net/DTD/sodipodi-0.dtd" xmlns:inkscape="http://www.inkscape.org/namespaces/inkscape" width="210mm" height="297mm" viewBox="0 0 744.09448819 1052.3622047" id="svg2" version="1.1"inkscape:version="0.91 r13725" sodipodi:docname="border.svg">
    <path style="fill:none;fill-rule:evenodd;stroke:#000000;stroke-width:5;stroke-linecap:round;stroke-linejoin:round;stroke-opacity:1;stroke-miterlimit:4;stroke-dasharray:none"
       d="m 177.14286,429.50506 c -3.32628,-22.35866 10.65915,-2.08773 14.28571,-5.71428 0.67344,-0.67344 -0.67343,-2.18371 0,-2.85715 0.67344,-0.67343 2.18371,0.67344 2.85714,0 0.67344,-0.67343 -0.42591,-2.0053 0,-2.85714 5.94538,-11.89074 -0.19724,3.05439 5.71429,-2.85714 0.67344,-0.67344 -0.67344,-2.18371 0,-2.85715 0.67344,-0.67343 2.18371,0.67344 2.85714,0 0.67344,-0.67343 -0.67343,-2.1837 0,-2.85714 7.61905,0 -0.95238,0.95238 2.85715,-2.85714 0.67343,-0.67344 2.1837,0.67343 2.85714,0 0.67343,-0.67344 -0.67344,-2.18371 0,-2.85714 0.67343,-0.67344 2.00531,0.42591 2.85714,0 1.20468,-0.60234 1.65247,-2.25481 2.85714,-2.85715 0.85184,-0.42591 2.18371,0.67344 2.85715,0 0.67343,-0.67343 -0.67344,-2.1837 0,-2.85714 0.67343,-0.67343 2.1837,0.67344 2.85714,0 0.67344,-0.67343 -0.67344,-2.18371 0,-2.85714 0.67344,-0.67344 2.00531,0.42592 2.85714,0 1.20468,-0.60234 1.65247,-2.25481 2.85715,-2.85715 0.85183,-0.42591 2.1837,0.67344 2.85714,0 0.67343,-0.67343 -0.67344,-2.1837 0,-2.85714 1.34687,-1.34687 4.01061,0.85184 5.71428,0 1.20468,-0.60234 1.65247,-2.2548 2.85715,-2.85714 1.70367,-0.85184 4.36741,1.34687 5.71428,0 0.67344,-0.67344 -0.67343,-2.18371 0,-2.85714 0.68752,-0.68752 10.74106,0.68751 11.42857,0 0.67344,-0.67344 -0.67343,-2.18371 0,-2.85715 0.0919,-0.0919 7.8785,0 8.57143,0 0.95238,0 1.90476,0 2.85715,0 0.95238,0 2.1837,0.67344 2.85714,0 0.67343,-0.67343 -0.85184,-2.43122 0,-2.85714 1.75356,-0.87678 12.51456,0.88557 14.28571,0 1.20468,-0.60234 1.65247,-2.2548 2.85715,-2.85714 1.76975,-0.88488 10.58319,0.84537 11.42857,0 0.67343,-0.67344 -0.67344,-2.18371 0,-2.85715 0.11497,-0.11497 10.37932,0 11.42857,0 26.66667,0 53.33333,0 80,0 3.80952,0 7.61905,0 11.42857,0 0.95238,0 2.18371,-0.67343 2.85714,0 0.67344,0.67344 -0.90351,2.55598 0,2.85715 1.8308,0.61026 18.96395,0 22.85715,0 1.90476,0 3.90727,-0.60234 5.71428,0 2.02031,0.67343 3.64828,2.34064 5.71429,2.85714 2.5178,0.62945 15.45256,-0.84515 17.14285,0 7.06116,3.53058 -0.98622,2.85714 5.71429,2.85714 1.12947,0 13.06548,-0.61012 14.28571,0 1.20468,0.60234 1.65247,2.25481 2.85715,2.85715 0.85183,0.42591 1.90476,0 2.85714,0 1.90476,0 4.01061,-0.85184 5.71429,0 0.85183,0.42591 -0.67344,2.1837 0,2.85714 0.0152,0.0152 8.47591,-0.0239 8.57142,0 2.06601,0.5165 3.69398,2.18371 5.71429,2.85714 0.90351,0.30117 1.90476,0 2.85714,0 1.90476,0.95238 3.69398,2.18371 5.71429,2.85714 0.90351,0.30117 1.95363,-0.30116 2.85714,0 5.96208,1.98736 8.32363,6.58407 14.28572,8.57143 0.9035,0.30117 1.95363,-0.30117 2.85714,0 2.0203,0.67344 3.69398,2.18371 5.71428,2.85715 0.90351,0.30117 2.18371,-0.67344 2.85715,0 0.67343,0.67343 -0.67344,2.1837 0,2.85714 1.34687,1.34687 4.01061,-0.85184 5.71428,0 1.20468,0.60234 1.65247,2.2548 2.85715,2.85714 1.70367,0.85184 4.36741,-1.34687 5.71428,0 3.80953,3.80953 -4.7619,2.85714 2.85714,2.85714 6.70051,0 -1.34687,-0.67343 5.71429,2.85715 3.94102,1.97051 2.55564,-3.46016 5.71429,2.85714 0.42591,0.85184 -0.67344,2.18371 0,2.85714 0.67343,0.67344 2.0053,-0.42591 2.85714,0 2.40935,1.20468 3.30493,4.50961 5.71428,5.71429 3.94102,1.97051 2.55564,-3.46016 5.71429,2.85714 0.42592,0.85184 -0.42592,2.00531 0,2.85714 5.94537,11.89075 -0.19724,-3.05438 5.71429,2.85715 0.67343,0.67343 -0.67344,2.18371 0,2.85714 5.91153,5.91153 -0.23109,-9.0336 5.71428,2.85714 0.85184,1.70367 -1.34687,4.36742 0,5.71429 5.91153,5.91153 -0.23108,-9.0336 5.71429,2.85714 0.42591,0.85184 -0.30117,1.95364 0,2.85714 0.67343,2.02031 2.1837,3.69399 2.85714,5.71429 0.30117,0.90351 -0.42592,2.00531 0,2.85714 0.60234,1.20468 2.43123,1.57939 2.85714,2.85715 0.004,0.0129 -0.003,8.5687 0,8.57142 0.67344,0.67344 2.43123,-0.85183 2.85715,0 0.85183,1.70368 -0.60234,3.90727 0,5.71429 0.42591,1.27775 2.2548,1.65247 2.85714,2.85714 0.85183,1.70367 -0.60234,3.90727 0,5.71429 3.28306,9.84918 2.85714,2.11647 2.85714,8.57143 0,0.95238 0,3.80952 0,2.85714 0,-1.90476 0,-7.61905 0,-5.71429 0,2.85715 -0.69296,5.7996 0,8.57143 0.32667,1.30666 2.25481,1.65247 2.85714,2.85715 0.43434,0.86867 0,9.45565 0,11.42857 0,4.7619 0,9.52381 0,14.28571 0,0.95238 0.67344,2.18371 0,2.85714 -0.67343,0.67344 -2.1837,-0.67343 -2.85714,0 -0.67343,0.67344 0,1.90477 0,2.85715 0,1.90476 0.85184,4.01061 0,5.71428 -0.42592,0.85184 -2.18371,-0.67343 -2.85714,0 -1.34687,1.34687 1.34687,4.36742 0,5.71429 -0.67344,0.67343 -2.18371,-0.67344 -2.85714,0 -1.34687,1.34687 1.34687,4.36741 0,5.71428 -0.67344,0.67344 -2.18371,-0.67343 -2.85715,0 -0.67343,0.67344 0.42592,2.00531 0,2.85715 -0.60234,1.20467 -1.90476,1.90476 -2.85714,2.85714 -0.95238,0.95238 -1.65247,2.2548 -2.85714,2.85714 -0.85184,0.42592 -2.18371,-0.67343 -2.85715,0 -0.67343,0.67344 0.67344,2.18371 0,2.85715 -1.34687,1.34687 -4.36741,-1.34687 -5.71428,0 -0.67344,0.67343 0.67343,2.1837 0,2.85714 -1.34687,1.34687 -4.36742,-1.34687 -5.71429,0 -0.67343,0.67343 0.67344,2.18371 0,2.85714 -1.34687,1.34687 -4.36741,-1.34687 -5.71428,0 -0.67344,0.67344 0.67343,2.18371 0,2.85714 -1.42857,1.42858 -7.14286,-1.42857 -8.57143,0 -0.67344,0.67344 0.67343,2.18371 0,2.85715 -1.42857,1.42857 -7.14286,-1.42857 -8.57143,0 -0.67344,0.67343 0.67344,2.18371 0,2.85714 -0.78178,0.78178 -9.87861,-0.77498 -11.42857,0 -1.20468,0.60234 -1.65247,2.2548 -2.85714,2.85714 -1.54997,0.77499 -10.6468,-0.78177 -11.42858,0 -0.67343,0.67344 0.67344,2.18371 0,2.85715 -0.67343,0.67343 -1.90476,0 -2.85714,0 -0.95238,0 -1.90476,0 -2.85714,0 -0.69293,0 -8.47954,-0.0919 -8.57143,0 -0.67344,0.67343 0.67344,2.1837 0,2.85714 -0.11498,0.11497 -10.37932,0 -11.42857,0 -0.95238,0 -1.90476,0 -2.85714,0 -0.95239,0 -2.18371,-0.67344 -2.85715,0 -0.67343,0.67343 0.67344,2.18371 0,2.85714 -0.67343,0.67344 -1.90476,0 -2.85714,0 -3.80952,0 -7.61905,0 -11.42857,0 -0.95238,0 -2.18371,-0.67343 -2.85714,0 -0.67344,0.67344 0.67343,2.18371 0,2.85714 -0.0919,0.0919 -7.8785,0 -8.57143,0 -5.71429,0 -11.42857,0 -17.14286,0 -0.95238,0 -2.18371,0.67344 -2.85714,0 -0.67344,-0.67343 0.67343,-2.1837 0,-2.85714 -0.67344,-0.67343 -1.90476,0 -2.85715,0 -0.95238,0 -1.90476,0 -2.85714,0 -3.80952,0 -7.61905,0 -11.42857,0 -1.90476,0 -7.61905,0 -5.71429,0 1.90477,0 7.61905,0 5.71429,0 -20.26493,0 -1.67368,2.02031 -11.42857,-2.85714 -0.77315,-0.38658 -15.91215,0 -17.14286,0 -0.95238,0 -2.18371,0.67343 -2.85714,0 -0.67344,-0.67344 0.67343,-2.18371 0,-2.85714 -0.67344,-0.67344 -1.90476,0 -2.85714,0 -0.95239,0 -1.90477,0 -2.85715,0 -4.7619,0 -9.52381,0 -14.28571,0 -1.90476,0 -3.8664,0.46197 -5.71429,0 -2.066,-0.5165 -3.64828,-2.34065 -5.71428,-2.85715 -1.84789,-0.46197 -3.80953,0 -5.71429,0 -4.55957,0 -17.20075,0.69982 -20,0 -1.30665,-0.32666 -1.65246,-2.2548 -2.85714,-2.85714 -0.85184,-0.42592 -1.90476,0 -2.85714,0 -0.95239,0 -1.90477,0 -2.85715,0 -5.71428,0 -11.42857,0 -17.14285,0 -1.87745,0 -6.95944,0.53733 -8.57143,0 -2.02031,-0.67343 -3.64828,-2.34064 -5.71429,-2.85714 -0.0955,-0.0239 -8.55625,0.0152 -8.57143,0 -0.67343,-0.67344 0.85184,-2.43123 0,-2.85715 -1.70367,-0.85183 -4.01061,0.85184 -5.71428,0 -0.85184,-0.42591 0.67343,-2.1837 0,-2.85714 -1.42857,-1.42857 -7.14286,1.42857 -8.57143,0 -0.67344,-0.67343 0.67343,-2.18371 0,-2.85714 -3.84,-3.84 -1.87429,3.84 -5.71429,0 -0.67343,-0.67344 0.67344,-2.18371 0,-2.85714 -0.67343,-0.67344 -1.95363,0.30117 -2.85714,0 -2.02031,-0.67344 -3.69398,-2.18371 -5.71429,-2.85715 -0.9035,-0.30117 -1.95363,0.30117 -2.85714,0 -2.0203,-0.67343 -3.64828,-2.34064 -5.71428,-2.85714 -1.84789,-0.46197 -3.90727,0.60234 -5.71429,0 -1.27775,-0.42592 -1.65247,-2.2548 -2.85714,-2.85714 -1.70367,-0.85184 -3.90727,0.60234 -5.71429,0 -2.0203,-0.67344 -3.69398,-2.18371 -5.71428,-2.85715 -0.90351,-0.30116 -2.00531,0.42592 -2.85715,0 -1.20467,-0.60233 -1.65246,-2.2548 -2.85714,-2.85714 -0.85184,-0.42592 -1.95363,0.30117 -2.85714,0 -2.02031,-0.67343 -3.69398,-2.18371 -5.71429,-2.85714 -0.90351,-0.30117 -1.95363,0.30117 -2.85714,0 -2.02031,-0.67344 -3.69398,-2.18371 -5.71429,-2.85714 -0.90351,-0.30117 -2.0053,0.42591 -2.85714,0 -1.20468,-0.60234 -1.65247,-2.25481 -2.85714,-2.85715 -1.70367,-0.85183 -4.36742,1.34687 -5.71429,0 -0.67343,-0.67343 0.67344,-2.1837 0,-2.85714 -0.67343,-0.67343 -2.00531,0.42592 -2.85714,0 -1.20468,-0.60234 -1.65247,-2.2548 -2.85714,-2.85714 -1.70368,-0.85184 -3.90727,0.60234 -5.71429,0 -1.90476,-0.95238 -3.80952,-1.90476 -5.71429,-2.85715 0,-0.95238 0.67344,-2.1837 0,-2.85714 -0.67343,-0.67343 -2.0053,0.42592 -2.85714,0 -9.47595,-9.47595 2.69374,1.34687 -5.71428,-2.85714 -2.40936,-1.20468 -3.30494,-4.50961 -5.71429,-5.71429 -1.70367,-0.85183 -4.36742,1.34687 -5.71429,0 -0.67343,-0.67343 0.67344,-2.1837 0,-2.85714 -0.67343,-0.67343 -2.1837,0.67344 -2.85714,0 -0.67343,-0.67343 0.67344,-2.18371 0,-2.85714 -0.67343,-0.67344 -2.18371,0.67343 -2.85714,0 -0.67344,-0.67344 0.67343,-2.18371 0,-2.85715 -0.67344,-0.67343 -2.00531,0.42592 -2.85714,0 -2.40936,-1.20467 -3.30494,-4.5096 -5.71429,-5.71428 -0.85184,-0.42592 -2.18371,0.67343 -2.85714,0 -0.67344,-0.67344 0.67343,-2.18371 0,-2.85714 -0.67344,-0.67344 -2.18371,0.67343 -2.85715,0 -0.67343,-0.67344 0.67344,-2.18371 0,-2.85715 -0.67343,-0.67343 -2.1837,0.67344 -2.85714,0 -5.91153,-5.91153 9.0336,0.23109 -2.85714,-5.71428 -0.85184,-0.42592 -2.18371,0.67343 -2.85714,0 -1.34687,-1.34687 1.34687,-4.36742 0,-5.71429 -0.67344,-0.67343 -1.90477,0 -2.85715,0 0,-0.95238 0.67344,-2.18371 0,-2.85714 -0.67343,-0.67344 -2.1837,0.67343 -2.85714,0 -1.34687,-1.34687 0.85184,-4.01062 0,-5.71429 -0.60234,-1.20467 -2.2548,-1.65246 -2.85714,-2.85714 -0.42592,-0.85183 0.42591,-2.00531 0,-2.85714 -0.60234,-1.20468 -2.25481,-1.65247 -2.85715,-2.85715 -0.85183,-1.70367 1.34687,-4.36741 0,-5.71428 -0.67343,-0.67344 -2.1837,0.67343 -2.85714,0 -1.34687,-1.34687 0.85184,-4.01062 0,-5.71429 -0.60234,-1.20467 -2.2548,-1.65246 -2.85714,-2.85714 -0.85184,-1.70367 1.34687,-4.36742 0,-5.71429 -0.67344,-0.67343 -2.18371,0.67344 -2.85714,0 -1.34687,-1.34687 1.34687,-4.36741 0,-5.71428 -0.67344,-0.67344 -2.18371,0.67343 -2.85715,0 -0.67343,-0.67344 0.42592,-2.00531 0,-2.85714 -0.60234,-1.20468 -2.2548,-1.65247 -2.85714,-2.85715 -0.85184,-1.70367 1.34687,-4.36741 0,-5.71428 -0.67344,-0.67344 -2.18371,0.67343 -2.85714,0 -0.67344,-0.67344 0.42591,-2.00531 0,-2.85715 -0.60234,-1.20467 -2.25481,-1.65246 -2.85715,-2.85714 -0.42591,-0.85183 -0.95238,-2.85714 0,-2.85714 0.95239,0 0.95239,2.85714 0,2.85714 -3.53057,0 -2.85714,-4.00677 -2.85714,-5.71428" id="path3352" inkscape:connector-curvature="0" />
</svg>
